name rise49.8558peak67.6521fall70.3087.mot
datacolumns 19
datarows 23
range 21.01824900000000 21.05492000000000
endheader
time	ground_force1_vx	ground_force1_vy	ground_force1_vz	ground_force1_px	ground_force1_py	ground_force1_pz	ground_force2_vx	ground_force2_vy	ground_force2_vz	ground_force2_px	ground_force2_py	ground_force2_pz	ground_torque1_x	ground_torque1_y	ground_torque1_z	ground_torque2_x	ground_torque2_y	ground_torque2_z	
21.01824900000000	-8.73790300000000	40.78125300000000	-8.06877800000000	0.33781000000000	0.00000000000000	0.11253700000000	-54.16432400000000	791.86436600000002	-59.39285800000000	0.14552800000000	0.00000000000000	-0.07599500000000	0.00000000000000	-5.11942700000000	0.00000000000000	0.00000000000000	-23.85377200000000	0.00000000000000	
21.01993800000000	-9.56233800000000	47.78762200000000	-9.04484700000000	0.34266500000000	0.00000000000000	0.11359900000000	-54.63583400000000	789.22960899999998	-59.01785700000000	0.14458900000000	0.00000000000000	-0.07592300000000	0.00000000000000	-5.82100900000000	0.00000000000000	0.00000000000000	-23.71977900000000	0.00000000000000	
21.02158600000000	-10.21644600000000	54.88076000000000	-9.92070400000000	0.34719400000000	0.00000000000000	0.11455200000000	-55.11408400000000	786.49426100000005	-58.62132000000000	0.14365500000000	0.00000000000000	-0.07584700000000	0.00000000000000	-6.47791400000000	0.00000000000000	0.00000000000000	-23.58411200000000	0.00000000000000	
21.02325300000000	-10.67663400000000	61.96969300000000	-10.67460800000000	0.35144400000000	0.00000000000000	0.11541300000000	-55.59915300000000	783.65825800000005	-58.20336800000000	0.14272900000000	0.00000000000000	-0.07576800000000	0.00000000000000	-7.07535700000000	0.00000000000000	0.00000000000000	-23.44689500000000	0.00000000000000	
21.02491800000000	-10.92918700000000	68.98590400000000	-11.29220400000000	0.35545300000000	0.00000000000000	0.11619700000000	-56.09108000000000	780.72150099999999	-57.76414200000000	0.14181100000000	0.00000000000000	-0.07568500000000	0.00000000000000	-7.60281500000000	0.00000000000000	0.00000000000000	-23.30824900000000	0.00000000000000	
21.02658300000000	-10.97009100000000	75.88543100000000	-11.76659400000000	0.35925200000000	0.00000000000000	0.11691300000000	-56.58985900000000	777.68385300000000	-57.30380200000000	0.14090000000000	0.00000000000000	-0.07559900000000	0.00000000000000	-8.05422800000000	0.00000000000000	0.00000000000000	-23.16829000000000	0.00000000000000	
21.02825600000000	-10.80409700000000	82.64859700000000	-12.09779900000000	0.36286500000000	0.00000000000000	0.11757100000000	-57.09543700000000	774.54513399999996	-56.82253300000000	0.13999900000000	0.00000000000000	-0.07550800000000	0.00000000000000	-8.42779500000000	0.00000000000000	0.00000000000000	-23.02712600000000	0.00000000000000	
21.02992000000000	-10.44322600000000	89.27777500000001	-12.29173400000000	0.36631200000000	0.00000000000000	0.11817800000000	-57.60771400000000	771.30511899999999	-56.32053800000000	0.13910700000000	0.00000000000000	-0.07541400000000	0.00000000000000	-8.72546300000000	0.00000000000000	0.00000000000000	-22.88486200000000	0.00000000000000	
21.03158900000000	-9.90493700000000	95.79372600000001	-12.35888900000000	0.36961000000000	0.00000000000000	0.11874100000000	-58.12654200000000	767.96353399999998	-55.79804500000000	0.13822600000000	0.00000000000000	-0.07531500000000	0.00000000000000	-8.95219000000000	0.00000000000000	0.00000000000000	-22.74159300000000	0.00000000000000	
21.03325500000000	-9.21016600000000	102.23104800000000	-12.31285900000000	0.37277400000000	0.00000000000000	0.11926600000000	-58.65172000000000	764.52005699999995	-55.25530100000000	0.13735500000000	0.00000000000000	-0.07521300000000	0.00000000000000	-9.11508700000000	0.00000000000000	0.00000000000000	-22.59740900000000	0.00000000000000	
21.03492400000000	-8.38142100000000	108.63328100000000	-12.16887900000000	0.37581500000000	0.00000000000000	0.11975500000000	-59.18299300000000	760.97431300000005	-54.69257800000000	0.13649600000000	0.00000000000000	-0.07510600000000	0.00000000000000	-9.22252900000000	0.00000000000000	0.00000000000000	-22.45239100000000	0.00000000000000	
21.03658700000000	-7.44107900000000	115.04811400000000	-11.94248000000000	0.37874200000000	0.00000000000000	0.12021400000000	-59.72005500000000	757.32587599999999	-54.11017000000000	0.13565000000000	0.00000000000000	-0.07499500000000	0.00000000000000	-9.28331800000000	0.00000000000000	0.00000000000000	-22.30661600000000	0.00000000000000	
21.03825800000000	-6.40997800000000	121.52306500000000	-11.64835600000000	0.38156400000000	0.00000000000000	0.12064500000000	-60.26254000000000	753.57426599999997	-53.50839400000000	0.13481600000000	0.00000000000000	-0.07488100000000	0.00000000000000	-9.30595000000000	0.00000000000000	0.00000000000000	-22.16014800000000	0.00000000000000	
21.03992200000000	-5.30638300000000	128.10189299999999	-11.29948700000000	0.38428800000000	0.00000000000000	0.12105200000000	-60.81002700000000	749.71895099999995	-52.88758900000000	0.13399600000000	0.00000000000000	-0.07476200000000	0.00000000000000	-9.29802800000000	0.00000000000000	0.00000000000000	-22.01304600000000	0.00000000000000	
21.04158500000000	-4.14531300000000	134.82188400000001	-10.90655100000000	0.38692100000000	0.00000000000000	0.12143600000000	-61.36203500000000	745.75934600000005	-52.24812000000000	0.13319000000000	0.00000000000000	-0.07463900000000	0.00000000000000	-9.26585300000000	0.00000000000000	0.00000000000000	-21.86536200000000	0.00000000000000	
21.04325600000000	-2.93824100000000	141.71207000000001	-10.47761200000000	0.38946700000000	0.00000000000000	0.12180000000000	-61.91802500000000	741.69481299999995	-51.59037500000000	0.13239900000000	0.00000000000000	-0.07451100000000	0.00000000000000	-9.21417100000000	0.00000000000000	0.00000000000000	-21.71713500000000	0.00000000000000	
21.04491600000000	-1.69311500000000	148.79234299999999	-10.01806400000000	0.39193000000000	0.00000000000000	0.12214500000000	-62.47739600000000	737.52466700000002	-50.91476500000000	0.13162200000000	0.00000000000000	-0.07438000000000	0.00000000000000	-9.14609900000000	0.00000000000000	0.00000000000000	-21.56839900000000	0.00000000000000	
21.04658400000000	-0.41462900000000	156.07337400000000	-9.53078400000000	0.39431400000000	0.00000000000000	0.12247400000000	-63.03948600000000	733.24817299999995	-50.22172600000000	0.13086200000000	0.00000000000000	-0.07424400000000	0.00000000000000	-9.06317300000000	0.00000000000000	0.00000000000000	-21.41917700000000	0.00000000000000	
21.04825000000000	0.89529900000000	163.55719099999999	-9.01644900000000	0.39662300000000	0.00000000000000	0.12278700000000	-63.60357000000000	728.86455000000001	-49.51171900000000	0.13011800000000	0.00000000000000	-0.07410400000000	0.00000000000000	-8.96552300000000	0.00000000000000	0.00000000000000	-21.26948400000000	0.00000000000000	
21.04992400000000	2.23693600000000	171.23825099999999	-8.47396100000000	0.39886000000000	0.00000000000000	0.12308500000000	-64.16886000000000	724.37297500000000	-48.78522800000000	0.12939100000000	0.00000000000000	-0.07395900000000	0.00000000000000	-8.85211100000000	0.00000000000000	0.00000000000000	-21.11932400000000	0.00000000000000	
21.05158200000000	3.61208900000000	179.10484000000000	-7.90092800000000	0.40102500000000	0.00000000000000	0.12337000000000	-64.73450900000000	719.77258700000004	-48.04276200000000	0.12868200000000	0.00000000000000	-0.07381100000000	0.00000000000000	-8.72102500000000	0.00000000000000	0.00000000000000	-20.96869400000000	0.00000000000000	
21.05325600000000	5.02345400000000	187.14063100000001	-7.29416100000000	0.40312300000000	0.00000000000000	0.12364300000000	-65.29960199999999	715.06248800000003	-47.28485500000000	0.12799000000000	0.00000000000000	-0.07365800000000	0.00000000000000	-8.56978700000000	0.00000000000000	0.00000000000000	-20.81757900000000	0.00000000000000	
21.05492000000000	6.47403100000000	195.32625400000001	-6.65013400000000	0.40515400000000	0.00000000000000	0.12390400000000	-65.86316500000000	710.24175200000002	-46.51206400000000	0.12731600000000	0.00000000000000	-0.07350000000000	0.00000000000000	-8.39565100000000	0.00000000000000	0.00000000000000	-20.66595600000000	0.00000000000000	
